# xmcd
#
# Track frame offsets:
#       150
#       16452
#       30975
#       47567
#       62552
#       81645
#       101767
#       120067
#       144462
#       167335
#       181412
#
# Disc length: 2703 seconds
#
# Revision: 1
# Processed by: cddbd v1.4PL0 Copyright (c) Steve Scherf et al.
# Submitted via: MusiCat 1.1
#
DISCID=820a8d0b
DTITLE=The Move - California Man
DYEAR=1900
DGENRE=
TTITLE0=California Man
TTITLE1=Ella James
TTITLE2=No Time
TTITLE3=Tonight
TTITLE4=Down On The Bay
TTITLE5=The Minister
TTITLE6=Do Ya
TTITLE7=The Words Of Aaron
TTITLE8=Until Your Moma's Gone
TTITLE9=Chinatown
TTITLE10=Message From The Country
EXTD=0\nEMI Harvest\n\n
EXTT0=
EXTT1=
EXTT2=
EXTT3=
EXTT4=
EXTT5=
EXTT6=
EXTT7=
EXTT8=
EXTT9=
EXTT10=
PLAYORDER=
